<svg xmlns="http://www.w3.org/2000/svg" viewBox="0 0 270.46 294.16"><defs><style>.cls-1{fill:#fff;stroke:#fff;stroke-miterlimit:10;stroke-width:0.75px;}</style></defs><g id="Layer_2" data-name="Layer 2"><g id="Layer_1-2" data-name="Layer 1"><path class="cls-1" d="M194,236.93l4.29-179.1h0c44-18.7,71.88-51.94,71.88-51.94s-54.37,47.2-130,46.81C61.32,52.3,5.41.27,5.41.27S32.39,34.45,75.75,55L72.47,238.41C28.06,258.83.29,293.89.29,293.89s56-51.94,134.8-52.24c75.67-.28,130,47,130,47S237.51,255.75,194,236.93Zm-59.75-12.81a143.94,143.94,0,0,0-46.8,8.25L91,61.4a144.39,144.39,0,0,0,48.26,8.83,143,143,0,0,0,43.33-6.63l-3.88,167.58A143.38,143.38,0,0,0,134.26,224.12Z"/></g></g></svg>